<svg width="425" height="388" viewBox="0 0 425 388" fill="none" xmlns="http://www.w3.org/2000/svg">
<g filter="url(#filter0_d_213_5)">
<path d="M414.919 16.9614C414.873 8.87849 409.112 1.95899 401.171 0.449066L400.375 0.297721C399.334 0.0997764 398.276 0.000138806 397.217 0.0001228L389.087 0L266.167 0.000135129C259.646 0.000142297 253.707 3.74938 250.903 9.63567L235.018 42.98C232.214 48.8663 226.275 52.6155 219.755 52.6155L16.9069 52.6154C7.56952 52.6154 3.05176e-05 60.1849 3.05176e-05 69.5223V363.093C3.05176e-05 372.431 7.56949 380 16.9069 380H399.996C409.371 380 416.956 372.371 416.903 362.996L414.919 16.9614Z" fill="black" fill-opacity="0.6" shape-rendering="crispEdges"/>
<path d="M413.919 16.9672C413.876 9.3623 408.455 2.85208 400.984 1.43146L400.188 1.28012C399.209 1.09388 398.214 1.00014 397.217 1.00012L389.087 1L266.167 1.00014C260.032 1.00014 254.444 4.52762 251.806 10.0658L235.921 43.4101C232.951 49.6445 226.661 53.6155 219.755 53.6155L16.9069 53.6154C8.1218 53.6154 1.00003 60.7372 1.00003 69.5223V363.093C1.00003 371.878 8.12177 379 16.9069 379H399.996C408.817 379 415.953 371.823 415.903 363.002L413.919 16.9672Z" stroke="white" stroke-width="2" shape-rendering="crispEdges"/>
</g>
<path d="M60.465 314.332L61.6098 315.495V326.093L60.465 327.257H54.9258L53.7811 326.093V315.495L54.9258 314.332H60.465ZM60.5573 325.669V315.92L60.0219 315.384H55.369L54.8335 315.92V325.669L55.369 326.204H60.0219L60.5573 325.669ZM58.2309 323.01H57.16V318.579H58.2309V323.01Z" fill="white"/>
<path d="M112.878 336.075V349H111.826V337.257L109.333 343.922H107.745L105.253 337.257V349H104.2V336.075H105.936L108.484 342.852H108.595L111.143 336.075H112.878ZM122.38 339.473L123.525 340.617V347.837L122.38 349H116.841L115.696 347.837V340.617L116.841 339.473H122.38ZM122.472 347.412V341.061L121.937 340.525H117.284L116.748 341.061V347.412L117.284 347.948H121.937L122.472 347.412ZM133.451 339.473L134.596 340.617V349H133.543V341.061L133.008 340.525H127.82V349H126.767V339.473H133.451Z" fill="white"/>
<path d="M180.454 336.075V337.128H177.075V349H176.004V337.128H172.625V336.075H180.454ZM190.472 339.473H191.525V347.837L190.38 349H184.841L183.696 347.837V339.473H184.748V347.412L185.284 347.948H189.937L190.472 347.412V339.473ZM202.596 344.753H195.82V347.412L196.355 347.948H202.596V349H195.912L194.767 347.837V340.617L195.912 339.473H201.451L202.596 340.617V344.753ZM195.82 341.061V343.701H201.543V341.061L201.008 340.525H196.355L195.82 341.061Z" fill="white"/>
<path d="M241.915 336.112L240.992 349H239.238L237.558 342.224H237.521L235.84 349H234.086L233.163 336.112L234.216 336.038L235.047 347.763L236.708 341.153H238.37L240.032 347.763L240.863 336.038L241.915 336.112ZM252.525 344.753H245.748V347.412L246.284 347.948H252.525V349H245.841L244.696 347.837V340.617L245.841 339.473H251.38L252.525 340.617V344.753ZM245.748 341.061V343.701H251.472V341.061L250.937 340.525H246.284L245.748 341.061ZM262.543 336.075H263.596V349H256.912L255.767 347.837V340.617L256.912 339.473H262.543V336.075ZM262.543 347.948V340.525H257.355L256.82 341.061V347.412L257.355 347.948H262.543Z" fill="white"/>
<path d="M303.454 336.075V337.128H300.075V349H299.004V337.128H295.625V336.075H303.454ZM313.38 339.473L314.525 340.617V349H313.472V341.061L312.937 340.525H307.748V349H306.696V336.075H307.748V339.473H313.38ZM324.543 339.473H325.596V347.837L324.451 349H318.912L317.767 347.837V339.473H318.82V347.412L319.355 347.948H324.008L324.543 347.412V339.473ZM335.522 339.473L336.667 340.617V343.073H335.614V341.061L335.079 340.525H331.589V347.948H333.288V349H328.838V347.948H330.537V340.525H328.838V339.473H335.522Z" fill="white"/>
<path d="M50.5317 281.466L43.7554 288.242V288.353H50.5317V289.406H42.7029V287.818L49.4792 281.023V278.069L48.9438 277.533H44.2908L43.7554 278.069V280.081H42.7029V277.644L43.8477 276.481H49.3869L50.5317 277.644V281.466ZM60.458 276.481L61.6028 277.644V288.242L60.458 289.406H54.9189L53.7741 288.242V277.644L54.9189 276.481H60.458ZM60.5503 287.818V278.069L60.0149 277.533H55.362L54.8265 278.069V287.818L55.362 288.353H60.0149L60.5503 287.818ZM58.2239 285.159H57.153V280.728H58.2239V285.159Z" fill="white"/>
<path d="M49.4792 238.63H50.5317V251.555H49.4792V246.477H43.8477L42.7029 245.314V238.63H43.7554V244.871L44.2908 245.406H49.4792V238.63ZM60.458 238.63L61.6028 239.793V250.391L60.458 251.555H54.9189L53.7741 250.391V239.793L54.9189 238.63H60.458ZM60.5503 249.967V240.218L60.0149 239.682H55.362L54.8265 240.218V249.967L55.362 250.502H60.0149L60.5503 249.967ZM58.2239 247.308H57.153V242.877H58.2239V247.308Z" fill="white"/>
<path d="M44.2908 204.601L43.7554 205.136V208.626H49.3869L50.5317 209.789V215.31L49.3869 216.473H43.8477L42.7029 215.31V204.712L43.8477 203.548H50.5317V204.601H44.2908ZM48.9438 209.697H43.7554V214.885L44.2908 215.421H48.9438L49.4792 214.885V210.232L48.9438 209.697ZM60.458 203.548L61.6028 204.712V215.31L60.458 216.473H54.9189L53.7741 215.31V204.712L54.9189 203.548H60.458ZM60.5503 214.885V205.136L60.0149 204.601H55.362L54.8265 205.136V214.885L55.362 215.421H60.0149L60.5503 214.885ZM58.2239 212.226H57.153V207.795H58.2239V212.226Z" fill="white"/>
<path d="M50.5317 168.707V173.378L49.9039 174.006L50.5317 174.634V179.305L49.3869 180.469H43.8477L42.7029 179.305V174.634L43.3307 174.006L42.7029 173.378V168.707L43.8477 167.544H49.3869L50.5317 168.707ZM49.4792 178.881V175.077L48.9438 174.542H44.2908L43.7554 175.077V178.881L44.2908 179.416H48.9438L49.4792 178.881ZM49.4792 172.935V169.132L48.9438 168.596H44.2908L43.7554 169.132V172.935L44.2908 173.471H48.9438L49.4792 172.935ZM60.458 167.544L61.6028 168.707V179.305L60.458 180.469H54.9189L53.7741 179.305V168.707L54.9189 167.544H60.458ZM60.5503 178.881V169.132L60.0149 168.596H55.362L54.8265 169.132V178.881L55.362 179.416H60.0149L60.5503 178.881ZM58.2239 176.222H57.153V171.79H58.2239V176.222Z" fill="white"/>
<path d="M36.1854 141.565H39.5643V142.617H31.7356V141.565H35.1145V130.745H35.0222L32.2526 133.515L31.514 132.758L34.5791 129.693H36.1854V141.565ZM49.3799 129.693L50.5247 130.856V141.454L49.3799 142.617H43.8407L42.696 141.454V130.856L43.8407 129.693H49.3799ZM49.4722 141.03V131.281L48.9368 130.745H44.2839L43.7484 131.281V141.03L44.2839 141.565H48.9368L49.4722 141.03ZM47.1458 138.371H46.0749V133.939H47.1458V138.371ZM60.451 129.693L61.5958 130.856V141.454L60.451 142.617H54.9119L53.7671 141.454V130.856L54.9119 129.693H60.451ZM60.5434 141.03V131.281L60.0079 130.745H55.355L54.8195 131.281V141.03L55.355 141.565H60.0079L60.5434 141.03ZM58.2169 138.371H57.146V133.939H58.2169V138.371Z" fill="white"/>
<mask id="path-13-outside-1_213_5" maskUnits="userSpaceOnUse" x="8" y="16" width="211" height="28" fill="black">
<rect fill="white" x="8" y="16" width="211" height="28"/>
<path d="M21.0434 25.2057L10.9771 35.272V35.4366H21.0434V37H9.41371V34.6411L19.48 24.5474V20.1589L18.6846 19.3634H11.7726L10.9771 20.1589V23.1486H9.41371V19.528L11.1143 17.8H19.3429L21.0434 19.528V25.2057ZM35.7893 17.8L37.4899 19.528V35.272L35.7893 37H27.5607L25.8601 35.272V19.528L27.5607 17.8H35.7893ZM35.9264 34.6411V20.1589L35.131 19.3634H28.219L27.4236 20.1589V34.6411L28.219 35.4366H35.131L35.9264 34.6411ZM32.4704 30.6914H30.8796V24.1086H32.4704V30.6914ZM53.9363 25.2057L43.87 35.272V35.4366H53.9363V37H42.3066V34.6411L52.3729 24.5474V20.1589L51.5774 19.3634H44.6654L43.87 20.1589V23.1486H42.3066V19.528L44.0071 17.8H52.2357L53.9363 19.528V25.2057ZM70.3827 19.3634H60.3164V25.3429H68.6821L70.3827 27.0709V35.272L68.6821 37H58.753V35.4366H68.0239L68.8193 34.6411V27.7291L68.0239 26.9337H58.753V17.8H70.3827V19.3634ZM103.276 17.8V19.3634H98.2561V37H96.6653V19.3634H91.6459V17.8H103.276ZM118.021 22.8469L119.722 24.5474V28.1954H118.159V25.2057L117.363 24.4103H112.179V35.4366H114.703V37H108.092V35.4366H110.616V24.4103H108.092V22.8469H118.021ZM136.168 30.6914H126.102V34.6411L126.898 35.4366H136.168V37H126.239L124.539 35.272V24.5474L126.239 22.8469H134.468L136.168 24.5474V30.6914ZM126.102 25.2057V29.128H134.605V25.2057L133.81 24.4103H126.898L126.102 25.2057ZM150.914 22.8469L152.615 24.5474V37H151.051V25.2057L150.256 24.4103H142.549V37H140.985V22.8469H150.914ZM167.498 17.8H169.061V37H159.132L157.432 35.272V24.5474L159.132 22.8469H167.498V17.8ZM167.498 35.4366V24.4103H159.79L158.995 25.2057V34.6411L159.79 35.4366H167.498ZM180.488 35.4366H185.508V37H173.878V35.4366H178.897V24.4103H173.878V22.8469H180.488V35.4366ZM180.488 19.3634H177.636V16.5383H180.488V19.3634ZM200.254 22.8469L201.954 24.5474V37H200.391V25.2057L199.595 24.4103H191.888V37H190.324V22.8469H200.254ZM208.471 22.8469H218.401V41.5806L216.7 43.3086H206.771V41.7177H216.042L216.837 40.9223V37H208.471L206.771 35.272V24.5474L208.471 22.8469ZM216.837 35.4366V24.4103H209.13L208.334 25.2057V34.6411L209.13 35.4366H216.837Z"/>
</mask>
<path d="M21.0434 25.2057L10.9771 35.272V35.4366H21.0434V37H9.41371V34.6411L19.48 24.5474V20.1589L18.6846 19.3634H11.7726L10.9771 20.1589V23.1486H9.41371V19.528L11.1143 17.8H19.3429L21.0434 19.528V25.2057ZM35.7893 17.8L37.4899 19.528V35.272L35.7893 37H27.5607L25.8601 35.272V19.528L27.5607 17.8H35.7893ZM35.9264 34.6411V20.1589L35.131 19.3634H28.219L27.4236 20.1589V34.6411L28.219 35.4366H35.131L35.9264 34.6411ZM32.4704 30.6914H30.8796V24.1086H32.4704V30.6914ZM53.9363 25.2057L43.87 35.272V35.4366H53.9363V37H42.3066V34.6411L52.3729 24.5474V20.1589L51.5774 19.3634H44.6654L43.87 20.1589V23.1486H42.3066V19.528L44.0071 17.8H52.2357L53.9363 19.528V25.2057ZM70.3827 19.3634H60.3164V25.3429H68.6821L70.3827 27.0709V35.272L68.6821 37H58.753V35.4366H68.0239L68.8193 34.6411V27.7291L68.0239 26.9337H58.753V17.8H70.3827V19.3634ZM103.276 17.8V19.3634H98.2561V37H96.6653V19.3634H91.6459V17.8H103.276ZM118.021 22.8469L119.722 24.5474V28.1954H118.159V25.2057L117.363 24.4103H112.179V35.4366H114.703V37H108.092V35.4366H110.616V24.4103H108.092V22.8469H118.021ZM136.168 30.6914H126.102V34.6411L126.898 35.4366H136.168V37H126.239L124.539 35.272V24.5474L126.239 22.8469H134.468L136.168 24.5474V30.6914ZM126.102 25.2057V29.128H134.605V25.2057L133.81 24.4103H126.898L126.102 25.2057ZM150.914 22.8469L152.615 24.5474V37H151.051V25.2057L150.256 24.4103H142.549V37H140.985V22.8469H150.914ZM167.498 17.8H169.061V37H159.132L157.432 35.272V24.5474L159.132 22.8469H167.498V17.8ZM167.498 35.4366V24.4103H159.79L158.995 25.2057V34.6411L159.79 35.4366H167.498ZM180.488 35.4366H185.508V37H173.878V35.4366H178.897V24.4103H173.878V22.8469H180.488V35.4366ZM180.488 19.3634H177.636V16.5383H180.488V19.3634ZM200.254 22.8469L201.954 24.5474V37H200.391V25.2057L199.595 24.4103H191.888V37H190.324V22.8469H200.254ZM208.471 22.8469H218.401V41.5806L216.7 43.3086H206.771V41.7177H216.042L216.837 40.9223V37H208.471L206.771 35.272V24.5474L208.471 22.8469ZM216.837 35.4366V24.4103H209.13L208.334 25.2057V34.6411L209.13 35.4366H216.837Z" fill="white"/>
<path d="M21.0434 25.2057L21.397 25.5593L21.5434 25.4128V25.2057H21.0434ZM10.9771 35.272L10.6236 34.9184L10.4771 35.0649V35.272H10.9771ZM10.9771 35.4366H10.4771V35.9366H10.9771V35.4366ZM21.0434 35.4366H21.5434V34.9366H21.0434V35.4366ZM21.0434 37V37.5H21.5434V37H21.0434ZM9.41371 37H8.91371V37.5H9.41371V37ZM9.41371 34.6411L9.05968 34.2881L8.91371 34.4344V34.6411H9.41371ZM19.48 24.5474L19.834 24.9005L19.98 24.7541V24.5474H19.48ZM19.48 20.1589H19.98V19.9518L19.8336 19.8053L19.48 20.1589ZM18.6846 19.3634L19.0381 19.0099L18.8917 18.8634H18.6846V19.3634ZM11.7726 19.3634V18.8634H11.5655L11.419 19.0099L11.7726 19.3634ZM10.9771 20.1589L10.6236 19.8053L10.4771 19.9518V20.1589H10.9771ZM10.9771 23.1486V23.6486H11.4771V23.1486H10.9771ZM9.41371 23.1486H8.91371V23.6486H9.41371V23.1486ZM9.41371 19.528L9.05734 19.1773L8.91371 19.3232V19.528H9.41371ZM11.1143 17.8V17.3H10.9048L10.7579 17.4493L11.1143 17.8ZM19.3429 17.8L19.6992 17.4493L19.5523 17.3H19.3429V17.8ZM21.0434 19.528H21.5434V19.3232L21.3998 19.1773L21.0434 19.528ZM20.6899 24.8522L10.6236 34.9184L11.3307 35.6256L21.397 25.5593L20.6899 24.8522ZM10.4771 35.272V35.4366H11.4771V35.272H10.4771ZM10.9771 35.9366H21.0434V34.9366H10.9771V35.9366ZM20.5434 35.4366V37H21.5434V35.4366H20.5434ZM21.0434 36.5H9.41371V37.5H21.0434V36.5ZM9.91371 37V34.6411H8.91371V37H9.91371ZM9.76775 34.9942L19.834 24.9005L19.126 24.1944L9.05968 34.2881L9.76775 34.9942ZM19.98 24.5474V20.1589H18.98V24.5474H19.98ZM19.8336 19.8053L19.0381 19.0099L18.331 19.717L19.1264 20.5124L19.8336 19.8053ZM18.6846 18.8634H11.7726V19.8634H18.6846V18.8634ZM11.419 19.0099L10.6236 19.8053L11.3307 20.5124L12.1261 19.717L11.419 19.0099ZM10.4771 20.1589V23.1486H11.4771V20.1589H10.4771ZM10.9771 22.6486H9.41371V23.6486H10.9771V22.6486ZM9.91371 23.1486V19.528H8.91371V23.1486H9.91371ZM9.77008 19.8787L11.4707 18.1507L10.7579 17.4493L9.05734 19.1773L9.77008 19.8787ZM11.1143 18.3H19.3429V17.3H11.1143V18.3ZM18.9865 18.1507L20.6871 19.8787L21.3998 19.1773L19.6992 17.4493L18.9865 18.1507ZM20.5434 19.528V25.2057H21.5434V19.528H20.5434ZM35.7893 17.8L36.1457 17.4493L35.9987 17.3H35.7893V17.8ZM37.4899 19.528H37.9899V19.3232L37.8462 19.1773L37.4899 19.528ZM37.4899 35.272L37.8462 35.6227L37.9899 35.4768V35.272H37.4899ZM35.7893 37V37.5H35.9987L36.1457 37.3507L35.7893 37ZM27.5607 37L27.2043 37.3507L27.3513 37.5H27.5607V37ZM25.8601 35.272H25.3601V35.4768L25.5038 35.6227L25.8601 35.272ZM25.8601 19.528L25.5038 19.1773L25.3601 19.3232V19.528H25.8601ZM27.5607 17.8V17.3H27.3513L27.2043 17.4493L27.5607 17.8ZM35.9264 34.6411L36.28 34.9947L36.4264 34.8482V34.6411H35.9264ZM35.9264 20.1589H36.4264V19.9518L36.28 19.8053L35.9264 20.1589ZM35.131 19.3634L35.4846 19.0099L35.3381 18.8634H35.131V19.3634ZM28.219 19.3634V18.8634H28.0119L27.8654 19.0099L28.219 19.3634ZM27.4236 20.1589L27.07 19.8053L26.9236 19.9518V20.1589H27.4236ZM27.4236 34.6411H26.9236V34.8482L27.07 34.9947L27.4236 34.6411ZM28.219 35.4366L27.8654 35.7901L28.0119 35.9366H28.219V35.4366ZM35.131 35.4366V35.9366H35.3381L35.4846 35.7901L35.131 35.4366ZM32.4704 30.6914V31.1914H32.9704V30.6914H32.4704ZM30.8796 30.6914H30.3796V31.1914H30.8796V30.6914ZM30.8796 24.1086V23.6086H30.3796V24.1086H30.8796ZM32.4704 24.1086H32.9704V23.6086H32.4704V24.1086ZM35.4329 18.1507L37.1335 19.8787L37.8462 19.1773L36.1457 17.4493L35.4329 18.1507ZM36.9899 19.528V35.272H37.9899V19.528H36.9899ZM37.1335 34.9213L35.4329 36.6493L36.1457 37.3507L37.8462 35.6227L37.1335 34.9213ZM35.7893 36.5H27.5607V37.5H35.7893V36.5ZM27.9171 36.6493L26.2165 34.9213L25.5038 35.6227L27.2043 37.3507L27.9171 36.6493ZM26.3601 35.272V19.528H25.3601V35.272H26.3601ZM26.2165 19.8787L27.9171 18.1507L27.2043 17.4493L25.5038 19.1773L26.2165 19.8787ZM27.5607 18.3H35.7893V17.3H27.5607V18.3ZM36.4264 34.6411V20.1589H35.4264V34.6411H36.4264ZM36.28 19.8053L35.4846 19.0099L34.7774 19.717L35.5729 20.5124L36.28 19.8053ZM35.131 18.8634H28.219V19.8634H35.131V18.8634ZM27.8654 19.0099L27.07 19.8053L27.7771 20.5124L28.5726 19.717L27.8654 19.0099ZM26.9236 20.1589V34.6411H27.9236V20.1589H26.9236ZM27.07 34.9947L27.8654 35.7901L28.5726 35.083L27.7771 34.2876L27.07 34.9947ZM28.219 35.9366H35.131V34.9366H28.219V35.9366ZM35.4846 35.7901L36.28 34.9947L35.5729 34.2876L34.7774 35.083L35.4846 35.7901ZM32.4704 30.1914H30.8796V31.1914H32.4704V30.1914ZM31.3796 30.6914V24.1086H30.3796V30.6914H31.3796ZM30.8796 24.6086H32.4704V23.6086H30.8796V24.6086ZM31.9704 24.1086V30.6914H32.9704V24.1086H31.9704ZM53.9363 25.2057L54.2898 25.5593L54.4363 25.4128V25.2057H53.9363ZM43.87 35.272L43.5164 34.9184L43.37 35.0649V35.272H43.87ZM43.87 35.4366H43.37V35.9366H43.87V35.4366ZM53.9363 35.4366H54.4363V34.9366H53.9363V35.4366ZM53.9363 37V37.5H54.4363V37H53.9363ZM42.3066 37H41.8066V37.5H42.3066V37ZM42.3066 34.6411L41.9525 34.2881L41.8066 34.4344V34.6411H42.3066ZM52.3729 24.5474L52.7269 24.9005L52.8729 24.7541V24.5474H52.3729ZM52.3729 20.1589H52.8729V19.9518L52.7264 19.8053L52.3729 20.1589ZM51.5774 19.3634L51.931 19.0099L51.7845 18.8634H51.5774V19.3634ZM44.6654 19.3634V18.8634H44.4583L44.3119 19.0099L44.6654 19.3634ZM43.87 20.1589L43.5164 19.8053L43.37 19.9518V20.1589H43.87ZM43.87 23.1486V23.6486H44.37V23.1486H43.87ZM42.3066 23.1486H41.8066V23.6486H42.3066V23.1486ZM42.3066 19.528L41.9502 19.1773L41.8066 19.3232V19.528H42.3066ZM44.0071 17.8V17.3H43.7977L43.6508 17.4493L44.0071 17.8ZM52.2357 17.8L52.5921 17.4493L52.4452 17.3H52.2357V17.8ZM53.9363 19.528H54.4363V19.3232L54.2927 19.1773L53.9363 19.528ZM53.5827 24.8522L43.5164 34.9184L44.2236 35.6256L54.2898 25.5593L53.5827 24.8522ZM43.37 35.272V35.4366H44.37V35.272H43.37ZM43.87 35.9366H53.9363V34.9366H43.87V35.9366ZM53.4363 35.4366V37H54.4363V35.4366H53.4363ZM53.9363 36.5H42.3066V37.5H53.9363V36.5ZM42.8066 37V34.6411H41.8066V37H42.8066ZM42.6606 34.9942L52.7269 24.9005L52.0188 24.1944L41.9525 34.2881L42.6606 34.9942ZM52.8729 24.5474V20.1589H51.8729V24.5474H52.8729ZM52.7264 19.8053L51.931 19.0099L51.2239 19.717L52.0193 20.5124L52.7264 19.8053ZM51.5774 18.8634H44.6654V19.8634H51.5774V18.8634ZM44.3119 19.0099L43.5164 19.8053L44.2236 20.5124L45.019 19.717L44.3119 19.0099ZM43.37 20.1589V23.1486H44.37V20.1589H43.37ZM43.87 22.6486H42.3066V23.6486H43.87V22.6486ZM42.8066 23.1486V19.528H41.8066V23.1486H42.8066ZM42.6629 19.8787L44.3635 18.1507L43.6508 17.4493L41.9502 19.1773L42.6629 19.8787ZM44.0071 18.3H52.2357V17.3H44.0071V18.3ZM51.8793 18.1507L53.5799 19.8787L54.2927 19.1773L52.5921 17.4493L51.8793 18.1507ZM53.4363 19.528V25.2057H54.4363V19.528H53.4363ZM70.3827 19.3634V19.8634H70.8827V19.3634H70.3827ZM60.3164 19.3634V18.8634H59.8164V19.3634H60.3164ZM60.3164 25.3429H59.8164V25.8429H60.3164V25.3429ZM68.6821 25.3429L69.0385 24.9921L68.8916 24.8429H68.6821V25.3429ZM70.3827 27.0709H70.8827V26.8661L70.7391 26.7201L70.3827 27.0709ZM70.3827 35.272L70.7391 35.6227L70.8827 35.4768V35.272H70.3827ZM68.6821 37V37.5H68.8916L69.0385 37.3507L68.6821 37ZM58.753 37H58.253V37.5H58.753V37ZM58.753 35.4366V34.9366H58.253V35.4366H58.753ZM68.0239 35.4366V35.9366H68.231L68.3774 35.7901L68.0239 35.4366ZM68.8193 34.6411L69.1728 34.9947L69.3193 34.8482V34.6411H68.8193ZM68.8193 27.7291H69.3193V27.522L69.1728 27.3756L68.8193 27.7291ZM68.0239 26.9337L68.3774 26.5802L68.231 26.4337H68.0239V26.9337ZM58.753 26.9337H58.253V27.4337H58.753V26.9337ZM58.753 17.8V17.3H58.253V17.8H58.753ZM70.3827 17.8H70.8827V17.3H70.3827V17.8ZM70.3827 18.8634H60.3164V19.8634H70.3827V18.8634ZM59.8164 19.3634V25.3429H60.8164V19.3634H59.8164ZM60.3164 25.8429H68.6821V24.8429H60.3164V25.8429ZM68.3258 25.6936L70.0263 27.4216L70.7391 26.7201L69.0385 24.9921L68.3258 25.6936ZM69.8827 27.0709V35.272H70.8827V27.0709H69.8827ZM70.0263 34.9213L68.3258 36.6493L69.0385 37.3507L70.7391 35.6227L70.0263 34.9213ZM68.6821 36.5H58.753V37.5H68.6821V36.5ZM59.253 37V35.4366H58.253V37H59.253ZM58.753 35.9366H68.0239V34.9366H58.753V35.9366ZM68.3774 35.7901L69.1728 34.9947L68.4657 34.2876L67.6703 35.083L68.3774 35.7901ZM69.3193 34.6411V27.7291H68.3193V34.6411H69.3193ZM69.1728 27.3756L68.3774 26.5802L67.6703 27.2873L68.4657 28.0827L69.1728 27.3756ZM68.0239 26.4337H58.753V27.4337H68.0239V26.4337ZM59.253 26.9337V17.8H58.253V26.9337H59.253ZM58.753 18.3H70.3827V17.3H58.753V18.3ZM69.8827 17.8V19.3634H70.8827V17.8H69.8827ZM103.276 17.8H103.776V17.3H103.276V17.8ZM103.276 19.3634V19.8634H103.776V19.3634H103.276ZM98.2561 19.3634V18.8634H97.7561V19.3634H98.2561ZM98.2561 37V37.5H98.7561V37H98.2561ZM96.6653 37H96.1653V37.5H96.6653V37ZM96.6653 19.3634H97.1653V18.8634H96.6653V19.3634ZM91.6459 19.3634H91.1459V19.8634H91.6459V19.3634ZM91.6459 17.8V17.3H91.1459V17.8H91.6459ZM102.776 17.8V19.3634H103.776V17.8H102.776ZM103.276 18.8634H98.2561V19.8634H103.276V18.8634ZM97.7561 19.3634V37H98.7561V19.3634H97.7561ZM98.2561 36.5H96.6653V37.5H98.2561V36.5ZM97.1653 37V19.3634H96.1653V37H97.1653ZM96.6653 18.8634H91.6459V19.8634H96.6653V18.8634ZM92.1459 19.3634V17.8H91.1459V19.3634H92.1459ZM91.6459 18.3H103.276V17.3H91.6459V18.3ZM118.021 22.8469L118.375 22.4933L118.229 22.3469H118.021V22.8469ZM119.722 24.5474H120.222V24.3403L120.076 24.1939L119.722 24.5474ZM119.722 28.1954V28.6954H120.222V28.1954H119.722ZM118.159 28.1954H117.659V28.6954H118.159V28.1954ZM118.159 25.2057H118.659V24.9986L118.512 24.8522L118.159 25.2057ZM117.363 24.4103L117.717 24.0567L117.57 23.9103H117.363V24.4103ZM112.179 24.4103V23.9103H111.679V24.4103H112.179ZM112.179 35.4366H111.679V35.9366H112.179V35.4366ZM114.703 35.4366H115.203V34.9366H114.703V35.4366ZM114.703 37V37.5H115.203V37H114.703ZM108.092 37H107.592V37.5H108.092V37ZM108.092 35.4366V34.9366H107.592V35.4366H108.092ZM110.616 35.4366V35.9366H111.116V35.4366H110.616ZM110.616 24.4103H111.116V23.9103H110.616V24.4103ZM108.092 24.4103H107.592V24.9103H108.092V24.4103ZM108.092 22.8469V22.3469H107.592V22.8469H108.092ZM117.668 23.2004L119.368 24.901L120.076 24.1939L118.375 22.4933L117.668 23.2004ZM119.222 24.5474V28.1954H120.222V24.5474H119.222ZM119.722 27.6954H118.159V28.6954H119.722V27.6954ZM118.659 28.1954V25.2057H117.659V28.1954H118.659ZM118.512 24.8522L117.717 24.0567L117.01 24.7638L117.805 25.5593L118.512 24.8522ZM117.363 23.9103H112.179V24.9103H117.363V23.9103ZM111.679 24.4103V35.4366H112.679V24.4103H111.679ZM112.179 35.9366H114.703V34.9366H112.179V35.9366ZM114.203 35.4366V37H115.203V35.4366H114.203ZM114.703 36.5H108.092V37.5H114.703V36.5ZM108.592 37V35.4366H107.592V37H108.592ZM108.092 35.9366H110.616V34.9366H108.092V35.9366ZM111.116 35.4366V24.4103H110.116V35.4366H111.116ZM110.616 23.9103H108.092V24.9103H110.616V23.9103ZM108.592 24.4103V22.8469H107.592V24.4103H108.592ZM108.092 23.3469H118.021V22.3469H108.092V23.3469ZM136.168 30.6914V31.1914H136.668V30.6914H136.168ZM126.102 30.6914V30.1914H125.602V30.6914H126.102ZM126.102 34.6411H125.602V34.8482L125.749 34.9947L126.102 34.6411ZM126.898 35.4366L126.544 35.7901L126.69 35.9366H126.898V35.4366ZM136.168 35.4366H136.668V34.9366H136.168V35.4366ZM136.168 37V37.5H136.668V37H136.168ZM126.239 37L125.883 37.3507L126.03 37.5H126.239V37ZM124.539 35.272H124.039V35.4768L124.182 35.6227L124.539 35.272ZM124.539 24.5474L124.185 24.1939L124.039 24.3403V24.5474H124.539ZM126.239 22.8469V22.3469H126.032L125.886 22.4933L126.239 22.8469ZM134.468 22.8469L134.821 22.4933L134.675 22.3469H134.468V22.8469ZM136.168 24.5474H136.668V24.3403L136.522 24.1939L136.168 24.5474ZM126.102 25.2057L125.749 24.8522L125.602 24.9986V25.2057H126.102ZM126.102 29.128H125.602V29.628H126.102V29.128ZM134.605 29.128V29.628H135.105V29.128H134.605ZM134.605 25.2057H135.105V24.9986L134.959 24.8522L134.605 25.2057ZM133.81 24.4103L134.163 24.0567L134.017 23.9103H133.81V24.4103ZM126.898 24.4103V23.9103H126.69L126.544 24.0567L126.898 24.4103ZM136.168 30.1914H126.102V31.1914H136.168V30.1914ZM125.602 30.6914V34.6411H126.602V30.6914H125.602ZM125.749 34.9947L126.544 35.7901L127.251 35.083L126.456 34.2876L125.749 34.9947ZM126.898 35.9366H136.168V34.9366H126.898V35.9366ZM135.668 35.4366V37H136.668V35.4366H135.668ZM136.168 36.5H126.239V37.5H136.168V36.5ZM126.596 36.6493L124.895 34.9213L124.182 35.6227L125.883 37.3507L126.596 36.6493ZM125.039 35.272V24.5474H124.039V35.272H125.039ZM124.892 24.901L126.593 23.2004L125.886 22.4933L124.185 24.1939L124.892 24.901ZM126.239 23.3469H134.468V22.3469H126.239V23.3469ZM134.114 23.2004L135.815 24.901L136.522 24.1939L134.821 22.4933L134.114 23.2004ZM135.668 24.5474V30.6914H136.668V24.5474H135.668ZM125.602 25.2057V29.128H126.602V25.2057H125.602ZM126.102 29.628H134.605V28.628H126.102V29.628ZM135.105 29.128V25.2057H134.105V29.128H135.105ZM134.959 24.8522L134.163 24.0567L133.456 24.7638L134.251 25.5593L134.959 24.8522ZM133.81 23.9103H126.898V24.9103H133.81V23.9103ZM126.544 24.0567L125.749 24.8522L126.456 25.5593L127.251 24.7638L126.544 24.0567ZM150.914 22.8469L151.268 22.4933L151.121 22.3469H150.914V22.8469ZM152.615 24.5474H153.115V24.3403L152.968 24.1939L152.615 24.5474ZM152.615 37V37.5H153.115V37H152.615ZM151.051 37H150.551V37.5H151.051V37ZM151.051 25.2057H151.551V24.9986L151.405 24.8522L151.051 25.2057ZM150.256 24.4103L150.61 24.0567L150.463 23.9103H150.256V24.4103ZM142.549 24.4103V23.9103H142.049V24.4103H142.549ZM142.549 37V37.5H143.049V37H142.549ZM140.985 37H140.485V37.5H140.985V37ZM140.985 22.8469V22.3469H140.485V22.8469H140.985ZM150.561 23.2004L152.261 24.901L152.968 24.1939L151.268 22.4933L150.561 23.2004ZM152.115 24.5474V37H153.115V24.5474H152.115ZM152.615 36.5H151.051V37.5H152.615V36.5ZM151.551 37V25.2057H150.551V37H151.551ZM151.405 24.8522L150.61 24.0567L149.902 24.7638L150.698 25.5593L151.405 24.8522ZM150.256 23.9103H142.549V24.9103H150.256V23.9103ZM142.049 24.4103V37H143.049V24.4103H142.049ZM142.549 36.5H140.985V37.5H142.549V36.5ZM141.485 37V22.8469H140.485V37H141.485ZM140.985 23.3469H150.914V22.3469H140.985V23.3469ZM167.498 17.8V17.3H166.998V17.8H167.498ZM169.061 17.8H169.561V17.3H169.061V17.8ZM169.061 37V37.5H169.561V37H169.061ZM159.132 37L158.776 37.3507L158.923 37.5H159.132V37ZM157.432 35.272H156.932V35.4768L157.075 35.6227L157.432 35.272ZM157.432 24.5474L157.078 24.1939L156.932 24.3403V24.5474H157.432ZM159.132 22.8469V22.3469H158.925L158.779 22.4933L159.132 22.8469ZM167.498 22.8469V23.3469H167.998V22.8469H167.498ZM167.498 35.4366V35.9366H167.998V35.4366H167.498ZM167.498 24.4103H167.998V23.9103H167.498V24.4103ZM159.79 24.4103V23.9103H159.583L159.437 24.0567L159.79 24.4103ZM158.995 25.2057L158.641 24.8522L158.495 24.9986V25.2057H158.995ZM158.995 34.6411H158.495V34.8482L158.641 34.9947L158.995 34.6411ZM159.79 35.4366L159.437 35.7901L159.583 35.9366H159.79V35.4366ZM167.498 18.3H169.061V17.3H167.498V18.3ZM168.561 17.8V37H169.561V17.8H168.561ZM169.061 36.5H159.132V37.5H169.061V36.5ZM159.489 36.6493L157.788 34.9213L157.075 35.6227L158.776 37.3507L159.489 36.6493ZM157.932 35.272V24.5474H156.932V35.272H157.932ZM157.785 24.901L159.486 23.2004L158.779 22.4933L157.078 24.1939L157.785 24.901ZM159.132 23.3469H167.498V22.3469H159.132V23.3469ZM167.998 22.8469V17.8H166.998V22.8469H167.998ZM167.998 35.4366V24.4103H166.998V35.4366H167.998ZM167.498 23.9103H159.79V24.9103H167.498V23.9103ZM159.437 24.0567L158.641 24.8522L159.349 25.5593L160.144 24.7638L159.437 24.0567ZM158.495 25.2057V34.6411H159.495V25.2057H158.495ZM158.641 34.9947L159.437 35.7901L160.144 35.083L159.349 34.2876L158.641 34.9947ZM159.79 35.9366H167.498V34.9366H159.79V35.9366ZM180.488 35.4366H179.988V35.9366H180.488V35.4366ZM185.508 35.4366H186.008V34.9366H185.508V35.4366ZM185.508 37V37.5H186.008V37H185.508ZM173.878 37H173.378V37.5H173.878V37ZM173.878 35.4366V34.9366H173.378V35.4366H173.878ZM178.897 35.4366V35.9366H179.397V35.4366H178.897ZM178.897 24.4103H179.397V23.9103H178.897V24.4103ZM173.878 24.4103H173.378V24.9103H173.878V24.4103ZM173.878 22.8469V22.3469H173.378V22.8469H173.878ZM180.488 22.8469H180.988V22.3469H180.488V22.8469ZM180.488 19.3634V19.8634H180.988V19.3634H180.488ZM177.636 19.3634H177.136V19.8634H177.636V19.3634ZM177.636 16.5383V16.0383H177.136V16.5383H177.636ZM180.488 16.5383H180.988V16.0383H180.488V16.5383ZM180.488 35.9366H185.508V34.9366H180.488V35.9366ZM185.008 35.4366V37H186.008V35.4366H185.008ZM185.508 36.5H173.878V37.5H185.508V36.5ZM174.378 37V35.4366H173.378V37H174.378ZM173.878 35.9366H178.897V34.9366H173.878V35.9366ZM179.397 35.4366V24.4103H178.397V35.4366H179.397ZM178.897 23.9103H173.878V24.9103H178.897V23.9103ZM174.378 24.4103V22.8469H173.378V24.4103H174.378ZM173.878 23.3469H180.488V22.3469H173.878V23.3469ZM179.988 22.8469V35.4366H180.988V22.8469H179.988ZM180.488 18.8634H177.636V19.8634H180.488V18.8634ZM178.136 19.3634V16.5383H177.136V19.3634H178.136ZM177.636 17.0383H180.488V16.0383H177.636V17.0383ZM179.988 16.5383V19.3634H180.988V16.5383H179.988ZM200.254 22.8469L200.607 22.4933L200.461 22.3469H200.254V22.8469ZM201.954 24.5474H202.454V24.3403L202.308 24.1939L201.954 24.5474ZM201.954 37V37.5H202.454V37H201.954ZM200.391 37H199.891V37.5H200.391V37ZM200.391 25.2057H200.891V24.9986L200.744 24.8522L200.391 25.2057ZM199.595 24.4103L199.949 24.0567L199.802 23.9103H199.595V24.4103ZM191.888 24.4103V23.9103H191.388V24.4103H191.888ZM191.888 37V37.5H192.388V37H191.888ZM190.324 37H189.824V37.5H190.324V37ZM190.324 22.8469V22.3469H189.824V22.8469H190.324ZM199.9 23.2004L201.601 24.901L202.308 24.1939L200.607 22.4933L199.9 23.2004ZM201.454 24.5474V37H202.454V24.5474H201.454ZM201.954 36.5H200.391V37.5H201.954V36.5ZM200.891 37V25.2057H199.891V37H200.891ZM200.744 24.8522L199.949 24.0567L199.242 24.7638L200.037 25.5593L200.744 24.8522ZM199.595 23.9103H191.888V24.9103H199.595V23.9103ZM191.388 24.4103V37H192.388V24.4103H191.388ZM191.888 36.5H190.324V37.5H191.888V36.5ZM190.824 37V22.8469H189.824V37H190.824ZM190.324 23.3469H200.254V22.3469H190.324V23.3469ZM208.471 22.8469V22.3469H208.264L208.118 22.4933L208.471 22.8469ZM218.401 22.8469H218.901V22.3469H218.401V22.8469ZM218.401 41.5806L218.757 41.9313L218.901 41.7853V41.5806H218.401ZM216.7 43.3086V43.8086H216.909L217.056 43.6593L216.7 43.3086ZM206.771 43.3086H206.271V43.8086H206.771V43.3086ZM206.771 41.7177V41.2177H206.271V41.7177H206.771ZM216.042 41.7177V42.2177H216.249L216.395 42.0713L216.042 41.7177ZM216.837 40.9223L217.191 41.2758L217.337 41.1294V40.9223H216.837ZM216.837 37H217.337V36.5H216.837V37ZM208.471 37L208.115 37.3507L208.262 37.5H208.471V37ZM206.771 35.272H206.271V35.4768L206.414 35.6227L206.771 35.272ZM206.771 24.5474L206.417 24.1939L206.271 24.3403V24.5474H206.771ZM216.837 35.4366V35.9366H217.337V35.4366H216.837ZM216.837 24.4103H217.337V23.9103H216.837V24.4103ZM209.13 24.4103V23.9103H208.923L208.776 24.0567L209.13 24.4103ZM208.334 25.2057L207.981 24.8522L207.834 24.9986V25.2057H208.334ZM208.334 34.6411H207.834V34.8482L207.981 34.9947L208.334 34.6411ZM209.13 35.4366L208.776 35.7901L208.923 35.9366H209.13V35.4366ZM208.471 23.3469H218.401V22.3469H208.471V23.3469ZM217.901 22.8469V41.5806H218.901V22.8469H217.901ZM218.044 41.2299L216.344 42.9579L217.056 43.6593L218.757 41.9313L218.044 41.2299ZM216.7 42.8086H206.771V43.8086H216.7V42.8086ZM207.271 43.3086V41.7177H206.271V43.3086H207.271ZM206.771 42.2177H216.042V41.2177H206.771V42.2177ZM216.395 42.0713L217.191 41.2758L216.484 40.5687L215.688 41.3642L216.395 42.0713ZM217.337 40.9223V37H216.337V40.9223H217.337ZM216.837 36.5H208.471V37.5H216.837V36.5ZM208.828 36.6493L207.127 34.9213L206.414 35.6227L208.115 37.3507L208.828 36.6493ZM207.271 35.272V24.5474H206.271V35.272H207.271ZM207.124 24.901L208.825 23.2004L208.118 22.4933L206.417 24.1939L207.124 24.901ZM217.337 35.4366V24.4103H216.337V35.4366H217.337ZM216.837 23.9103H209.13V24.9103H216.837V23.9103ZM208.776 24.0567L207.981 24.8522L208.688 25.5593L209.483 24.7638L208.776 24.0567ZM207.834 25.2057V34.6411H208.834V25.2057H207.834ZM207.981 34.9947L208.776 35.7901L209.483 35.083L208.688 34.2876L207.981 34.9947ZM209.13 35.9366H216.837V34.9366H209.13V35.9366Z" fill="white" mask="url(#path-13-outside-1_213_5)"/>
<line x1="69.6043" y1="108" x2="69.6043" y2="324.028" stroke="#C57AFF" stroke-width="1.66175"/>
<line x1="358.656" y1="324.859" x2="68.7728" y2="324.859" stroke="#C57AFF" stroke-width="1.66175"/>
<path d="M77.7778 312.552C73.3999 223.692 130.633 197.287 358.778 173.552" stroke="white"/>
<defs>
<filter id="filter0_d_213_5" x="0" y="0" width="424.902" height="388" filterUnits="userSpaceOnUse" color-interpolation-filters="sRGB">
<feFlood flood-opacity="0" result="BackgroundImageFix"/>
<feColorMatrix in="SourceAlpha" type="matrix" values="0 0 0 0 0 0 0 0 0 0 0 0 0 0 0 0 0 0 127 0" result="hardAlpha"/>
<feOffset dx="4" dy="4"/>
<feGaussianBlur stdDeviation="2"/>
<feComposite in2="hardAlpha" operator="out"/>
<feColorMatrix type="matrix" values="0 0 0 0 0 0 0 0 0 0 0 0 0 0 0 0 0 0 1 0"/>
<feBlend mode="normal" in2="BackgroundImageFix" result="effect1_dropShadow_213_5"/>
<feBlend mode="normal" in="SourceGraphic" in2="effect1_dropShadow_213_5" result="shape"/>
</filter>
</defs>
</svg>
