<svg width="708" height="833" viewBox="0 0 708 833" fill="none" xmlns="http://www.w3.org/2000/svg">
<circle cx="307.757" cy="435.945" r="50" transform="rotate(22.2082 307.757 435.945)" fill="#2A2A2A" fill-opacity="0.5"/>
<circle cx="307.757" cy="435.945" r="49" transform="rotate(22.2082 307.757 435.945)" stroke="white" stroke-opacity="0.5" stroke-width="2"/>
<line x1="405.969" y1="205.003" x2="594.993" y2="207.645" stroke="white" stroke-width="2"/>
<line x1="408.751" y1="201.297" x2="275.573" y2="284.103" stroke="white" stroke-width="2"/>
<line x1="407.362" y1="200.957" x2="338.367" y2="84.219" stroke="white" stroke-width="2"/>
<line x1="407.724" y1="201.315" x2="310.628" y2="145.473" stroke="white" stroke-opacity="0.5" stroke-width="2"/>
<circle cx="247.666" cy="294.758" r="49" transform="rotate(22.2082 247.666 294.758)" fill="#2A2A2A" stroke="white" stroke-width="2"/>
<circle cx="519.218" cy="338.654" r="50" transform="rotate(22.2082 519.218 338.654)" fill="#2A2A2A" fill-opacity="0.5"/>
<circle cx="519.218" cy="338.654" r="49" transform="rotate(22.2082 519.218 338.654)" stroke="white" stroke-opacity="0.5" stroke-width="2"/>
<circle cx="273.453" cy="115.184" r="50" transform="rotate(22.2082 273.453 115.184)" fill="#2A2A2A" fill-opacity="0.5"/>
<circle cx="273.453" cy="115.184" r="49" transform="rotate(22.2082 273.453 115.184)" stroke="white" stroke-opacity="0.5" stroke-width="2"/>
<circle cx="339.228" cy="83.7103" r="49" transform="rotate(22.2082 339.228 83.7103)" fill="#2A2A2A" stroke="white" stroke-width="2"/>
<circle cx="603.896" cy="207.966" r="49" transform="rotate(22.2082 603.896 207.966)" fill="#2A2A2A" stroke="white" stroke-width="2"/>
<line x1="413.635" y1="205.369" x2="442.279" y2="434.169" stroke="white" stroke-width="2"/>
<line x1="295.055" y1="528.416" x2="478.779" y2="414.401" stroke="white" stroke-width="2"/>
<line x1="357.264" y1="437.899" x2="441.233" y2="433.295" stroke="white" stroke-opacity="0.5" stroke-width="2"/>
<line x1="376.663" y1="740.786" x2="440.308" y2="434.09" stroke="white" stroke-width="2"/>
<line x1="441.998" y1="533.301" x2="440.287" y2="434.311" stroke="white" stroke-opacity="0.5" stroke-width="2"/>
<line x1="604.742" y1="374.365" x2="441.637" y2="435.231" stroke="white" stroke-width="2"/>
<line x1="486.511" y1="376.347" x2="442.085" y2="434.898" stroke="white" stroke-opacity="0.5" stroke-width="2"/>
<circle cx="415.043" cy="207.553" r="49" transform="rotate(22.2082 415.043 207.553)" fill="#2A0F68" stroke="white" stroke-width="2"/>
<circle cx="435.996" cy="447.255" r="49" transform="rotate(22.2082 435.996 447.255)" fill="#2A0F68" stroke="white" stroke-width="2"/>
<circle cx="570.533" cy="382.287" r="49" transform="rotate(22.2082 570.533 382.287)" fill="#2A2A2A" stroke="white" stroke-width="2"/>
<circle cx="297.849" cy="523.711" r="49" transform="rotate(22.2082 297.849 523.711)" fill="#2A2A2A" stroke="white" stroke-width="2"/>
<circle cx="373.486" cy="751.174" r="49" transform="rotate(22.2082 373.486 751.174)" fill="#2A2A2A" stroke="white" stroke-width="2"/>
<circle cx="442.277" cy="582.675" r="50" transform="rotate(22.2082 442.277 582.675)" fill="#2A2A2A" fill-opacity="0.5"/>
<circle cx="442.277" cy="582.675" r="49" transform="rotate(22.2082 442.277 582.675)" stroke="white" stroke-opacity="0.5" stroke-width="2"/>
</svg>
